<svg xmlns="http://www.w3.org/2000/svg" viewBox="0 0 463 463"><path d="M439 244.909V227h16.5a7.5 7.5 0 0 0 0-15h-48a7.5 7.5 0 0 0 0 15H424v17h-41V85.912c0-10.554-6.969-19.616-16.948-22.036C311.687 50.687 252.959 44 191.5 44S71.313 50.687 16.948 63.876C6.969 66.296 0 75.358 0 85.912v219.176c0 10.554 6.969 19.616 16.948 22.036 27.718 6.724 56.575 11.748 86.344 15.068L97.177 372H87.5C74.542 372 64 382.542 64 395.5v16a7.5 7.5 0 0 0 7.5 7.5h240a7.5 7.5 0 0 0 7.5-7.5v-16c0-12.958-10.542-23.5-23.5-23.5h-9.677l-6.115-29.808c29.769-3.32 58.626-8.343 86.344-15.068 9.979-2.42 16.948-11.482 16.948-22.036V291h33v8.5c0 8.547 6.953 15.5 15.5 15.5h16c8.547 0 15.5-6.953 15.5-15.5v-24c0-14.785-10.241-27.216-24-30.591zM191.5 332c-32.607 0-65.12-2.038-96.5-5.969v-38.608c31.372 2.365 63.784 3.577 96.5 3.577 32.714 0 65.131-1.213 96.5-3.578v38.609c-31.38 3.931-63.893 5.969-96.5 5.969zm0 15c14.04 0 27.929-.367 41.664-1.062L238.51 372h-94.02l5.346-26.062A824.263 824.263 0 0 0 191.5 347zM15 128.934c.478-.551 2.072-1.591 4.816-1.998 9.17-1.359 18.619-2.616 28.184-3.756v35.77c-10.076.432-20.036.91-29.688 1.43-.836.045-1.99.108-3.312.241v-31.687zm0 46.845c1.068-.17 2.43-.329 4.12-.42A2688.29 2688.29 0 0 1 48 173.963v43.074a2713.17 2713.17 0 0 1-28.88-1.396 39.639 39.639 0 0 1-4.12-.42v-39.442zm0 54.6c1.322.133 2.476.196 3.312.241 9.652.52 19.612.998 29.688 1.431v35.768a999.141 999.141 0 0 1-28.184-3.754c-2.744-.407-4.338-1.447-4.816-1.998v-31.688zm48-115.647V69.708a703.004 703.004 0 0 1 17-2.703v98.166c0 .024-.002.047-.001.071l.001.018v158.734a698.097 698.097 0 0 1-17-2.703V114.732zm225 103.956A3505.869 3505.869 0 0 1 191.5 220c-32.733 0-65.149-.445-96.5-1.312v-46.377c31.36-.867 63.776-1.312 96.5-1.312s65.14.445 96.5 1.312v46.377zM95 233.694c31.36.863 63.773 1.306 96.5 1.306 32.717 0 65.135-.443 96.5-1.306v38.685c-31.345 2.393-63.768 3.621-96.5 3.621-32.734 0-65.152-1.228-96.5-3.621v-38.685zm193-76.388c-31.368-.863-63.782-1.306-96.5-1.306s-65.131.443-96.5 1.306v-38.685c31.345-2.393 63.768-3.621 96.5-3.621s65.155 1.228 96.5 3.621v38.685zm15-90.301a698.097 698.097 0 0 1 17 2.703v251.585a703.004 703.004 0 0 1-17 2.703V67.005zm32 106.958c9.802.423 19.488.889 28.88 1.396 1.69.091 3.051.249 4.12.42v39.443c-1.068.17-2.43.329-4.12.42-9.393.507-19.079.973-28.88 1.396v-43.075zm33-13.342a69.168 69.168 0 0 0-3.312-.241c-9.652-.52-19.613-.998-29.688-1.43v-35.77c9.565 1.14 19.014 2.397 28.184 3.756 2.744.407 4.338 1.447 4.816 1.998v31.687zm-33 71.429a2696.03 2696.03 0 0 0 29.688-1.431c.836-.045 1.99-.108 3.312-.241v31.688c-.478.551-2.072 1.591-4.816 1.998A995.896 995.896 0 0 1 335 267.82v-35.77zm33-146.138v26.715a28.146 28.146 0 0 0-2.616-.529A1017.5 1017.5 0 0 0 335 108.08V72.461c9.342 1.824 18.533 3.813 27.516 5.992 3.178.771 5.484 3.908 5.484 7.459zm-80-20.943v38.609c-31.369-2.365-63.786-3.578-96.5-3.578s-65.131 1.213-96.5 3.578V64.969C126.38 61.038 158.893 59 191.5 59s65.12 2.038 96.5 5.969zM20.484 78.453A623.155 623.155 0 0 1 48 72.461v35.619a1017.067 1017.067 0 0 0-30.384 4.018c-.9.133-1.766.32-2.616.529V85.912c0-3.551 2.306-6.688 5.484-7.459zM15 305.088v-26.715c.85.209 1.716.396 2.616.529A1020.532 1020.532 0 0 0 48 282.919v35.62c-9.342-1.824-18.533-3.813-27.516-5.992-3.178-.771-5.484-3.908-5.484-7.459zm103.294 38.615c5.446.497 10.91.957 16.412 1.342L129.177 372H112.49l5.804-28.297zM304 395.5v8.5H79v-8.5c0-4.687 3.813-8.5 8.5-8.5h208c4.687 0 8.5 3.813 8.5 8.5zM270.51 372h-16.687l-5.529-26.955a770.764 770.764 0 0 0 16.412-1.342L270.51 372zM368 305.088c0 3.551-2.306 6.688-5.484 7.459A623.155 623.155 0 0 1 335 318.539V282.92a1016.394 1016.394 0 0 0 30.384-4.018c.9-.133 1.766-.32 2.616-.529v26.715zm80-5.588a.5.5 0 0 1-.5.5h-16a.5.5 0 0 1-.5-.5v-16a7.5 7.5 0 0 0-7.5-7.5H383v-17h48.5c9.098 0 16.5 7.402 16.5 16.5v24z"/></svg>